<?xml version="1.0" encoding="UTF-8"?>
<!DOCTYPE svg PUBLIC "-//W3C//DTD SVG 1.1//EN" "http://www.w3.org/Graphics/SVG/1.1/DTD/svg11.dtd">
<svg xmlns="http://www.w3.org/2000/svg" version="1.1" width="500px" height="500px" style="shape-rendering:geometricPrecision; text-rendering:geometricPrecision; image-rendering:optimizeQuality; fill-rule:evenodd; clip-rule:evenodd" xmlns:xlink="http://www.w3.org/1999/xlink">
<g><path style="opacity:1" fill="#fefefe" d="M -0.5,-0.5 C 166.167,-0.5 332.833,-0.5 499.5,-0.5C 499.5,166.167 499.5,332.833 499.5,499.5C 332.833,499.5 166.167,499.5 -0.5,499.5C -0.5,332.833 -0.5,166.167 -0.5,-0.5 Z"/></g>
<g><path style="opacity:1" fill="#0a0a0a" d="M 247.5,25.5 C 248.5,25.5 249.5,25.5 250.5,25.5C 250.5,32.5 250.5,39.5 250.5,46.5C 249.5,46.5 248.5,46.5 247.5,46.5C 247.5,39.5 247.5,32.5 247.5,25.5 Z"/></g>
<g><path style="opacity:1" fill="#282828" d="M 270.5,30.5 C 271.765,31.5145 272.431,33.0145 272.5,35C 272.408,38.2942 271.741,41.4608 270.5,44.5C 269.984,39.8957 269.984,35.2291 270.5,30.5 Z"/></g>
<g><path style="opacity:1" fill="#1e1e1e" d="M 293.5,34.5 C 294.239,34.369 294.906,34.5357 295.5,35C 291.48,51.7477 290.814,51.581 293.5,34.5 Z"/></g>
<g><path style="opacity:1" fill="#333333" d="M 225.5,30.5 C 226.777,31.6936 227.444,33.3603 227.5,35.5C 228.119,38.5931 228.119,41.5931 227.5,44.5C 226.015,39.9541 225.348,35.2874 225.5,30.5 Z"/></g>
<g><path style="opacity:1" fill="#303030" d="M 180.5,39.5 C 182.648,42.4026 184.148,45.7359 185,49.5C 185.667,50.8333 185.667,52.1667 185,53.5C 182.271,49.2556 180.771,44.5889 180.5,39.5 Z"/></g>
<g><path style="opacity:1" fill="#353535" d="M 315.5,39.5 C 316.497,39.4701 317.164,39.9701 317.5,41C 316.708,45.5481 315.041,49.7148 312.5,53.5C 312.167,53.1667 311.833,52.8333 311.5,52.5C 313.242,48.2746 314.576,43.9413 315.5,39.5 Z"/></g>
<g><path style="opacity:1" fill="#262626" d="M 202.5,34.5 C 203.931,34.8807 204.764,35.8807 205,37.5C 205.392,40.1879 205.892,42.8546 206.5,45.5C 206.167,46.1667 205.833,46.8333 205.5,47.5C 203.863,43.3174 202.863,38.9841 202.5,34.5 Z"/></g>
<g><path style="opacity:1" fill="#222222" d="M 158.5,49.5 C 159.189,48.2264 160.023,48.2264 161,49.5C 162.362,53.058 163.862,56.558 165.5,60C 165.167,60.5 164.833,61 164.5,61.5C 162.459,57.417 160.459,53.417 158.5,49.5 Z"/></g>
<g><path style="opacity:1" fill="#171717" d="M 135.5,55.5 C 137.39,55.2965 138.89,55.9632 140,57.5C 142.833,62.5 145.667,67.5 148.5,72.5C 147.824,74.3535 146.824,74.6869 145.5,73.5C 142.142,67.4456 138.809,61.4456 135.5,55.5 Z"/></g>
<g><path style="opacity:1" fill="#171717" d="M 358.5,55.5 C 359.5,55.5 360.5,55.5 361.5,55.5C 359.059,62.3791 355.559,68.7124 351,74.5C 349.635,73.4071 349.301,72.0738 350,70.5C 353.089,65.5941 355.923,60.5941 358.5,55.5 Z"/></g>
<g><path style="opacity:1" fill="#1a1a1a" d="M 253.5,57.5 C 254.209,56.596 255.209,56.2627 256.5,56.5C 256.185,69.8828 256.518,83.2162 257.5,96.5C 256.167,97.8333 254.833,97.8333 253.5,96.5C 254.823,83.3723 254.823,70.3723 253.5,57.5 Z"/></g>
<g><path style="opacity:1" fill="#242424" d="M 337.5,48.5 C 338.573,49.2506 338.74,50.2506 338,51.5C 336.519,54.9561 334.852,58.2895 333,61.5C 333.327,56.8274 334.827,52.494 337.5,48.5 Z"/></g>
<g><path style="opacity:1" fill="#141414" d="M 247.5,57.5 C 248.601,56.4017 249.934,56.235 251.5,57C 250.174,70.1369 250.174,83.3035 251.5,96.5C 250.167,97.8333 248.833,97.8333 247.5,96.5C 248.823,83.3723 248.823,70.3723 247.5,57.5 Z"/></g>
<g><path style="opacity:1" fill="#606060" d="M 242.5,77.5 C 241.469,75.0392 240.802,72.3725 240.5,69.5C 242.073,65.3591 243.407,61.0258 244.5,56.5C 244.833,56.8333 245.167,57.1667 245.5,57.5C 243.724,64.0465 242.724,70.7132 242.5,77.5 Z"/></g>
<g><path style="opacity:1" fill="#252525" d="M 240.5,69.5 C 240.802,72.3725 241.469,75.0392 242.5,77.5C 243.08,84.0697 244.413,90.403 246.5,96.5C 245.311,97.4287 243.978,97.762 242.5,97.5C 242.563,92.7971 242.229,88.1304 241.5,83.5C 241.158,82.6618 240.492,82.3284 239.5,82.5C 239.776,73.8278 238.443,65.4944 235.5,57.5C 236.689,56.5713 238.022,56.238 239.5,56.5C 239.739,60.8422 240.073,65.1756 240.5,69.5 Z"/></g>
<g><path style="opacity:1" fill="#1f1f1f" d="M 118.5,72.5 C 118.897,71.475 119.563,71.3083 120.5,72C 123.167,75.3333 125.833,78.6667 128.5,82C 127.833,82.6667 127.167,82.6667 126.5,82C 123.969,78.6425 121.302,75.4758 118.5,72.5 Z"/></g>
<g><path style="opacity:1" fill="#212121" d="M 376.5,71.5 C 378.028,71.5173 378.528,72.184 378,73.5C 376.088,75.6572 374.421,77.9906 373,80.5C 372.163,82.0074 370.996,82.5074 369.5,82C 372.216,78.7294 374.549,75.2294 376.5,71.5 Z"/></g>
<g><path style="opacity:1" fill="#262626" d="M 101.5,85.5 C 104.797,88.2956 107.964,91.2956 111,94.5C 111.688,95.3317 111.521,95.9984 110.5,96.5C 106.776,93.3624 103.776,89.6958 101.5,85.5 Z"/></g>
<g><path style="opacity:1" fill="#575757" d="M 155.5,97.5 C 156.404,98.209 156.737,99.209 156.5,100.5C 152.369,96.8704 148.369,93.037 144.5,89C 145.167,88.3333 145.833,88.3333 146.5,89C 149.369,92.0379 152.369,94.8712 155.5,97.5 Z"/></g>
<g><path style="opacity:1" fill="#191919" d="M 394.5,85.5 C 396.028,85.5173 396.528,86.184 396,87.5C 392.956,90.3753 390.123,93.3753 387.5,96.5C 386.479,95.9984 386.312,95.3317 387,94.5C 390.088,91.9186 392.588,88.9186 394.5,85.5 Z"/></g>
<g><path style="opacity:1" fill="#1d1d1d" d="M 158.5,79.5 C 166.236,90.7768 173.903,102.277 181.5,114C 180.5,114.5 179.5,115 178.5,115.5C 172.044,103.417 164.711,91.9166 156.5,81C 157.416,80.7216 158.082,80.2216 158.5,79.5 Z"/></g>
<g><path style="opacity:1" fill="#5e5e5e" d="M 239.5,82.5 C 240.492,82.3284 241.158,82.6618 241.5,83.5C 239.551,87.8575 238.218,92.5242 237.5,97.5C 237.167,97 236.833,96.5 236.5,96C 237.185,91.3027 238.185,86.8027 239.5,82.5 Z"/></g>
<g><path style="opacity:1" fill="#1c1c1c" d="M 344.5,81.5 C 346.686,81.5106 347.519,82.5106 347,84.5C 340.116,95.101 333.616,105.934 327.5,117C 326.407,118.817 325.407,118.65 324.5,116.5C 330.917,106.667 337.084,96.6674 343,86.5C 344.009,84.9751 344.509,83.3084 344.5,81.5 Z"/></g>
<g><path style="opacity:1" fill="#262626" d="M 84.5,101.5 C 88.6061,104.429 92.6061,107.596 96.5,111C 95.5,111.667 94.5,111.667 93.5,111C 90.2462,107.917 87.2462,104.751 84.5,101.5 Z"/></g>
<g><path style="opacity:1" fill="#212121" d="M 411.5,101.5 C 412.525,101.897 412.692,102.563 412,103.5C 409.21,107.334 405.71,109.834 401.5,111C 404.729,107.601 408.062,104.435 411.5,101.5 Z"/></g>
<g><path style="opacity:1" fill="#1b1b1b" d="M 163.5,107.5 C 162.529,108.962 162.862,110.295 164.5,111.5C 165.504,115.008 167.171,118.174 169.5,121C 168.437,122.188 167.103,122.688 165.5,122.5C 163.601,114.703 160.601,107.37 156.5,100.5C 156.737,99.209 156.404,98.209 155.5,97.5C 154.451,93.0165 152.451,89.0165 149.5,85.5C 150.689,84.5713 152.022,84.238 153.5,84.5C 155.677,92.7058 159.01,100.373 163.5,107.5 Z"/></g>
<g><path style="opacity:1" fill="#9b9b9b" d="M 163.5,107.5 C 164.833,108.167 165.833,109.167 166.5,110.5C 165.508,110.328 164.842,110.662 164.5,111.5C 162.862,110.295 162.529,108.962 163.5,107.5 Z"/></g>
<g><path style="opacity:1" fill="#606060" d="M 166.5,110.5 C 169.147,112.811 171.814,115.144 174.5,117.5C 173.998,118.521 173.332,118.688 172.5,118C 169.882,115.894 167.882,113.394 166.5,110.5 Z"/></g>
<g><path style="opacity:1" fill="#212121" d="M 70.5,119.5 C 74.88,121.7 78.88,124.533 82.5,128C 81.0922,128.315 79.7589,127.982 78.5,127C 76.3428,125.088 74.0094,123.421 71.5,122C 70.7476,121.329 70.4142,120.496 70.5,119.5 Z"/></g>
<g><path style="opacity:1" fill="#242424" d="M 425.5,119.5 C 426.376,119.369 427.043,119.702 427.5,120.5C 424.01,123.411 420.344,126.078 416.5,128.5C 416.167,128.167 415.833,127.833 415.5,127.5C 418.903,124.814 422.236,122.147 425.5,119.5 Z"/></g>
<g><path style="opacity:1" fill="#191919" d="M 55.5,136.5 C 60.938,139.053 66.2713,141.887 71.5,145C 73.4206,146.241 73.754,147.741 72.5,149.5C 66.8333,146.167 61.1667,142.833 55.5,139.5C 54.4376,138.575 54.4376,137.575 55.5,136.5 Z"/></g>
<g><path style="opacity:1" fill="#1b1b1b" d="M 440.5,136.5 C 442.973,136.604 443.639,137.604 442.5,139.5C 437.002,142.415 431.668,145.581 426.5,149C 425.668,149.688 425.002,149.521 424.5,148.5C 423.359,147.575 423.359,146.741 424.5,146C 430.062,143.059 435.395,139.892 440.5,136.5 Z"/></g>
<g><path style="opacity:1" fill="#2d2d2d" d="M 83.5,150.5 C 84.4971,149.287 85.4971,149.454 86.5,151C 85.4232,151.47 84.4232,151.303 83.5,150.5 Z"/></g>
<g><path style="opacity:1" fill="#1d1d1d" d="M 413.5,149.5 C 414.995,149.415 415.995,150.081 416.5,151.5C 404.797,157.7 393.463,164.533 382.5,172C 381.068,172.27 380.068,171.604 379.5,170C 391.362,163.908 402.696,157.075 413.5,149.5 Z"/></g>
<g><path style="opacity:1" fill="#252525" d="M 47.5,160.5 C 52.1019,160.601 56.4352,162.267 60.5,165.5C 60.1667,165.833 59.8333,166.167 59.5,166.5C 55.4734,164.487 51.4734,162.487 47.5,160.5 Z"/></g>
<g><path style="opacity:1" fill="#1f1f1f" d="M 447.5,159.5 C 448.552,159.351 449.552,159.517 450.5,160C 446.546,162.87 442.212,164.537 437.5,165C 440.767,162.871 444.101,161.038 447.5,159.5 Z"/></g>
<g><path style="opacity:1" fill="#1c1c1c" d="M 418.5,157.5 C 420.121,157.787 421.121,158.787 421.5,160.5C 409.22,166.306 397.22,172.64 385.5,179.5C 384.713,178.758 384.047,177.925 383.5,177C 392.814,172.368 402.147,167.701 411.5,163C 414.336,161.609 416.669,159.776 418.5,157.5 Z"/></g>
<g><path style="opacity:1" fill="#252525" d="M 104.5,168.5 C 96.6151,163.725 88.2817,159.725 79.5,156.5C 79.8333,155.5 80.5,154.833 81.5,154.5C 85.6393,157.039 89.9727,158.872 94.5,160C 92.5,158 90.5,156 88.5,154C 92.2826,155.748 95.6159,158.414 98.5,162C 105.056,165.112 111.723,167.945 118.5,170.5C 118.192,171.308 117.692,171.975 117,172.5C 113.351,170.837 109.684,169.171 106,167.5C 105.235,167.57 104.735,167.903 104.5,168.5 Z"/></g>
<g><path style="opacity:1" fill="#5a5a5a" d="M 104.5,168.5 C 108.067,170.557 111.234,173.223 114,176.5C 114.667,177.167 114.667,177.833 114,178.5C 110.629,175.297 107.462,171.964 104.5,168.5 Z"/></g>
<g><path style="opacity:1" fill="#2a2a2a" d="M 39.5,180.5 C 43.3238,182.162 47.3238,183.329 51.5,184C 52.7112,184.893 52.7112,185.726 51.5,186.5C 47.8862,185.18 44.2195,184.013 40.5,183C 39.7476,182.329 39.4142,181.496 39.5,180.5 Z"/></g>
<g><path style="opacity:1" fill="#262626" d="M 456.5,180.5 C 458.705,180.846 458.872,181.513 457,182.5C 453.129,183.735 449.296,185.068 445.5,186.5C 445.167,186.167 444.833,185.833 444.5,185.5C 448.416,183.423 452.416,181.756 456.5,180.5 Z"/></g>
<g><path style="opacity:1" fill="#292929" d="M 33.5,204.5 C 34.0968,203.861 34.9302,203.528 36,203.5C 40.0183,203.917 43.8516,204.917 47.5,206.5C 46.8333,206.833 46.1667,207.167 45.5,207.5C 41.5467,206.243 37.5467,205.243 33.5,204.5 Z"/></g>
<g><path style="opacity:1" fill="#1f1f1f" d="M 458.5,203.5 C 460.527,203.338 462.527,203.505 464.5,204C 459.754,205.587 455.088,206.421 450.5,206.5C 453.184,205.247 455.85,204.247 458.5,203.5 Z"/></g>
<g><path style="opacity:1" fill="#212121" d="M 461.5,225.5 C 463.604,225.201 465.604,225.534 467.5,226.5C 462.907,228.326 458.241,228.659 453.5,227.5C 456.306,226.832 458.972,226.166 461.5,225.5 Z"/></g>
<g><path style="opacity:1" fill="#2c2c2c" d="M 29.5,225.5 C 34.179,225.987 38.8456,226.653 43.5,227.5C 40.8938,228.652 38.2272,228.818 35.5,228C 32.9488,227.998 30.9488,227.164 29.5,225.5 Z"/></g>
<g><path style="opacity:1" fill="#1d1d1d" d="M 82.5,243.5 C 81.609,244.11 80.609,244.443 79.5,244.5C 71.6342,244.866 63.9675,246.2 56.5,248.5C 55.6143,247.675 55.281,246.675 55.5,245.5C 59.9808,245.575 64.3141,244.908 68.5,243.5C 69.4916,243.672 70.1583,243.338 70.5,242.5C 79.2358,241.633 87.9024,240.3 96.5,238.5C 96.5,239.5 96.5,240.5 96.5,241.5C 91.6093,241.532 86.9426,242.199 82.5,243.5 Z"/></g>
<g><path style="opacity:1" fill="#5d5d5d" d="M 70.5,242.5 C 70.1583,243.338 69.4916,243.672 68.5,243.5C 64.375,242.033 60.0416,240.867 55.5,240C 60.768,239.767 65.768,240.6 70.5,242.5 Z"/></g>
<g><path style="opacity:1" fill="#181818" d="M 440.5,238.5 C 442.048,238.821 442.715,239.821 442.5,241.5C 429.429,241.3 416.429,241.967 403.5,243.5C 402.614,242.675 402.281,241.675 402.5,240.5C 415.358,240.558 428.025,239.891 440.5,238.5 Z"/></g>
<g><path style="opacity:1" fill="#545454" d="M 82.5,243.5 C 86.9922,244.838 91.6589,246.005 96.5,247C 90.6147,247.017 84.9481,246.184 79.5,244.5C 80.609,244.443 81.609,244.11 82.5,243.5 Z"/></g>
<g><path style="opacity:1" fill="#474747" d="M 25.5,248.5 C 25.5,248.167 25.5,247.833 25.5,247.5C 32.5,247.5 39.5,247.5 46.5,247.5C 46.5,248.5 46.5,249.5 46.5,250.5C 46.1667,250.5 45.8333,250.5 45.5,250.5C 39.2504,248.541 32.5837,247.874 25.5,248.5 Z"/></g>
<g><path style="opacity:1" fill="#131313" d="M 246.5,247.5 C 248.665,247.116 250.332,247.783 251.5,249.5C 250.332,251.217 248.665,251.884 246.5,251.5C 246.5,250.167 246.5,248.833 246.5,247.5 Z"/></g>
<g><path style="opacity:1" fill="#000000" d="M 25.5,248.5 C 32.5837,247.874 39.2504,248.541 45.5,250.5C 38.4163,251.126 31.7496,250.459 25.5,248.5 Z"/></g>
<g><path style="opacity:1" fill="#1e1e1e" d="M 402.5,248.5 C 415.833,249.815 429.167,249.815 442.5,248.5C 443.386,249.325 443.719,250.325 443.5,251.5C 429.833,251.5 416.167,251.5 402.5,251.5C 402.5,250.5 402.5,249.5 402.5,248.5 Z"/></g>
<g><path style="opacity:1" fill="#282828" d="M 451.5,247.5 C 458.5,247.5 465.5,247.5 472.5,247.5C 472.5,248.833 472.5,250.167 472.5,251.5C 465.5,251.5 458.5,251.5 451.5,251.5C 451.5,250.167 451.5,248.833 451.5,247.5 Z"/></g>
<g><path style="opacity:1" fill="#808080" d="M 25.5,247.5 C 25.5,247.833 25.5,248.167 25.5,248.5C 31.7496,250.459 38.4163,251.126 45.5,250.5C 45.8333,250.5 46.1667,250.5 46.5,250.5C 39.3524,251.492 32.0191,251.825 24.5,251.5C 24.2322,249.901 24.5655,248.568 25.5,247.5 Z"/></g>
<g><path style="opacity:1" fill="#1e1e1e" d="M 94.5,252.5 C 96.0481,252.821 96.7148,253.821 96.5,255.5C 83.1172,255.185 69.7838,255.518 56.5,256.5C 55.6143,255.675 55.281,254.675 55.5,253.5C 68.6774,253.829 81.6774,253.495 94.5,252.5 Z"/></g>
<g><path style="opacity:1" fill="#1b1b1b" d="M 402.5,256.5 C 415.73,258.096 429.063,258.763 442.5,258.5C 442.737,259.791 442.404,260.791 441.5,261.5C 433.92,260.534 426.253,260.201 418.5,260.5C 413.36,259.512 408.026,259.179 402.5,259.5C 402.5,258.5 402.5,257.5 402.5,256.5 Z"/></g>
<g><path style="opacity:1" fill="#c0c0c0" d="M 402.5,256.5 C 402.5,257.5 402.5,258.5 402.5,259.5C 408.026,259.179 413.36,259.512 418.5,260.5C 412.833,260.5 407.167,260.5 401.5,260.5C 401.232,258.901 401.566,257.568 402.5,256.5 Z"/></g>
<g><path style="opacity:1" fill="#797979" d="M 442.5,258.5 C 443.782,259.708 443.782,261.042 442.5,262.5C 441.893,262.376 441.56,262.043 441.5,261.5C 442.404,260.791 442.737,259.791 442.5,258.5 Z"/></g>
<g><path style="opacity:1" fill="#2d2d2d" d="M 467.5,271.5 C 466.432,272.434 465.099,272.768 463.5,272.5C 460.102,272.82 456.768,272.487 453.5,271.5C 458.156,270.431 462.822,270.431 467.5,271.5 Z"/></g>
<g><path style="opacity:1" fill="#1f1f1f" d="M 36.5,272.5 C 34.2646,272.795 32.2646,272.461 30.5,271.5C 34.796,270.537 39.1294,270.371 43.5,271C 41.26,271.977 38.9267,272.477 36.5,272.5 Z"/></g>
<g><path style="opacity:1" fill="#979797" d="M 30.5,271.5 C 32.2646,272.461 34.2646,272.795 36.5,272.5C 34.3066,273.797 31.9732,273.797 29.5,272.5C 29.6236,271.893 29.9569,271.56 30.5,271.5 Z"/></g>
<g><path style="opacity:1" fill="#7c7c7c" d="M 467.5,271.5 C 468.043,271.56 468.376,271.893 468.5,272.5C 466.701,273.788 465.035,273.788 463.5,272.5C 465.099,272.768 466.432,272.434 467.5,271.5 Z"/></g>
<g><path style="opacity:1" fill="#262626" d="M 44.5,291.5 C 45.675,291.281 46.675,291.614 47.5,292.5C 42.9249,294.487 38.2582,295.154 33.5,294.5C 37.319,293.598 40.9856,292.598 44.5,291.5 Z"/></g>
<g><path style="opacity:1" fill="#1b1b1b" d="M 450.5,291.5 C 455.245,292.349 459.912,293.516 464.5,295C 461.134,295.33 457.801,294.997 454.5,294C 452.563,293.878 451.23,293.045 450.5,291.5 Z"/></g>
<g><path style="opacity:1" fill="#3b3b3b" d="M 444.5,312.5 C 449.68,313.002 454.347,314.669 458.5,317.5C 458.167,317.833 457.833,318.167 457.5,318.5C 453.704,317.068 449.871,315.735 446,314.5C 444.97,314.164 444.47,313.497 444.5,312.5 Z"/></g>
<g><path style="opacity:1" fill="#2c2c2c" d="M 49.5,312.5 C 50.675,312.281 51.675,312.614 52.5,313.5C 48.5097,315.164 44.5097,316.831 40.5,318.5C 40.1667,318.167 39.8333,317.833 39.5,317.5C 42.653,315.45 45.9864,313.784 49.5,312.5 Z"/></g>
<g><path style="opacity:1" fill="#1d1d1d" d="M 107.5,310.5 C 109.104,311.287 109.771,312.62 109.5,314.5C 97.8672,318.479 86.5338,323.312 75.5,329C 72.9981,332.364 71.6648,331.864 71.5,327.5C 72.8734,327.657 74.2068,327.49 75.5,327C 85.3298,321.947 95.3298,317.28 105.5,313C 106.381,312.292 107.047,311.458 107.5,310.5 Z"/></g>
<g><path style="opacity:1" fill="#191919" d="M 110.5,316.5 C 111.391,317.261 112.058,318.261 112.5,319.5C 100.22,325.306 88.2205,331.64 76.5,338.5C 76.1667,338 75.8333,337.5 75.5,337C 86.2293,330.628 97.2293,324.628 108.5,319C 109.381,318.292 110.047,317.458 110.5,316.5 Z"/></g>
<g><path style="opacity:1" fill="#1b1b1b" d="M 387.5,314.5 C 397.749,319.625 408.082,324.791 418.5,330C 420.436,330.813 422.436,331.313 424.5,331.5C 424.719,332.675 424.386,333.675 423.5,334.5C 411.167,328.667 398.833,322.833 386.5,317C 387.252,316.329 387.586,315.496 387.5,314.5 Z"/></g>
<g><path style="opacity:1" fill="#262626" d="M 437.5,332.5 C 441.814,334.496 446.147,336.496 450.5,338.5C 450,338.833 449.5,339.167 449,339.5C 446.224,338.195 443.39,337.029 440.5,336C 438.574,335.578 437.574,334.411 437.5,332.5 Z"/></g>
<g><path style="opacity:1" fill="#212121" d="M 58.5,332.5 C 60.337,332.639 60.6704,333.306 59.5,334.5C 55.5898,336.915 51.5898,338.249 47.5,338.5C 51.357,336.74 55.0237,334.74 58.5,332.5 Z"/></g>
<g><path style="opacity:1" fill="#1e1e1e" d="M 113.5,322.5 C 115.104,323.287 115.771,324.62 115.5,326.5C 103.451,332.026 91.7843,338.36 80.5,345.5C 79.6143,344.675 79.281,343.675 79.5,342.5C 89.3877,337.887 99.0544,332.721 108.5,327C 110.618,325.951 112.284,324.451 113.5,322.5 Z"/></g>
<g><path style="opacity:1" fill="#363636" d="M 113.5,335.5 C 103.593,340.79 93.5932,346.123 83.5,351.5C 83.1667,351.167 82.8333,350.833 82.5,350.5C 92.4578,344.688 102.791,339.688 113.5,335.5 Z"/></g>
<g><path style="opacity:1" fill="#1e1e1e" d="M 113.5,335.5 C 115.355,334.31 117.188,332.977 119,331.5C 119.374,332.416 119.874,333.25 120.5,334C 110.011,343.179 99.6773,352.179 89.5,361C 88.2888,360.107 88.2888,359.274 89.5,358.5C 98.019,350.813 106.686,343.313 115.5,336C 114.906,335.536 114.239,335.369 113.5,335.5 Z"/></g>
<g><path style="opacity:1" fill="#1d1d1d" d="M 384.5,321.5 C 396.188,328.678 408.188,335.345 420.5,341.5C 420,342.5 419.5,343.5 419,344.5C 407.357,336.928 395.191,330.261 382.5,324.5C 383.193,323.482 383.859,322.482 384.5,321.5 Z"/></g>
<g><path style="opacity:1" fill="#1c1c1c" d="M 380.5,328.5 C 391.26,336.082 402.427,343.082 414,349.5C 415.794,351.397 415.294,352.231 412.5,352C 402.17,344.833 391.503,338.166 380.5,332C 379.316,330.855 379.316,329.688 380.5,328.5 Z"/></g>
<g><path style="opacity:1" fill="#191919" d="M 71.5,349.5 C 73.4663,350.255 73.7996,351.421 72.5,353C 67.0016,355.915 61.6682,359.081 56.5,362.5C 54.5121,361.711 54.1787,360.545 55.5,359C 61.0618,356.059 66.3951,352.892 71.5,349.5 Z"/></g>
<g><path style="opacity:1" fill="#1f1f1f" d="M 375.5,335.5 C 387.316,343.555 398.816,351.555 410,359.5C 409.333,360.167 408.667,360.833 408,361.5C 397.583,353.25 386.75,345.584 375.5,338.5C 374.438,337.575 374.438,336.575 375.5,335.5 Z"/></g>
<g><path style="opacity:1" fill="#1c1c1c" d="M 424.5,349.5 C 429.938,352.053 435.271,354.887 440.5,358C 442.255,358.72 443.089,359.887 443,361.5C 442.586,361.957 442.086,362.291 441.5,362.5C 435.166,359.335 429.166,355.669 423.5,351.5C 423.863,350.817 424.196,350.15 424.5,349.5 Z"/></g>
<g><path style="opacity:1" fill="#222222" d="M 415.5,371.5 C 415.897,370.475 416.563,370.308 417.5,371C 421.012,373.257 424.346,375.757 427.5,378.5C 426.998,379.521 426.332,379.688 425.5,379C 422.29,376.283 418.956,373.783 415.5,371.5 Z"/></g>
<g><path style="opacity:1" fill="#242424" d="M 80.5,370.5 C 82.8418,370.775 82.8418,371.608 80.5,373C 77.8333,375 75.1667,377 72.5,379C 71.6683,379.688 71.0016,379.521 70.5,378.5C 73.5638,375.43 76.8971,372.763 80.5,370.5 Z"/></g>
<g><path style="opacity:1" fill="#252525" d="M 175.5,383.5 C 176.643,383.908 177.643,384.575 178.5,385.5C 174.815,398.259 172.148,411.259 170.5,424.5C 167.452,424.506 166.952,423.506 169,421.5C 170.785,411.122 172.452,400.789 174,390.5C 171.333,395.833 168.667,401.167 166,406.5C 165.346,407.696 164.846,407.696 164.5,406.5C 168.453,398.929 172.12,391.262 175.5,383.5 Z"/></g>
<g><path style="opacity:1" fill="#303030" d="M 401.5,386.5 C 405.402,388.893 408.902,391.893 412,395.5C 412.667,396.167 412.667,396.833 412,397.5C 408.478,394.734 405.145,391.734 402,388.5C 401.536,387.906 401.369,387.239 401.5,386.5 Z"/></g>
<g><path style="opacity:1" fill="#2a2a2a" d="M 93.5,387.5 C 95.0281,387.517 95.5281,388.184 95,389.5C 91.6868,391.979 88.5202,394.645 85.5,397.5C 84.479,396.998 84.3123,396.332 85,395.5C 88.3329,393.333 91.1663,390.666 93.5,387.5 Z"/></g>
<g><path style="opacity:1" fill="#1d1d1d" d="M 166.5,379.5 C 167.756,379.461 168.756,379.961 169.5,381C 161.695,392.113 154.528,403.613 148,415.5C 146.396,414.932 145.73,413.932 146,412.5C 153.857,402.115 160.691,391.115 166.5,379.5 Z"/></g>
<g><path style="opacity:1" fill="#212121" d="M 325.5,382.5 C 334.445,392.781 343.778,402.781 353.5,412.5C 353.192,413.308 352.692,413.975 352,414.5C 344.667,406.5 337.333,398.5 330,390.5C 329.667,391.5 329.333,392.5 329,393.5C 327.669,390.166 325.835,387.166 323.5,384.5C 324.243,383.818 324.909,383.151 325.5,382.5 Z"/></g>
<g><path style="opacity:1" fill="#393939" d="M 242.5,443.5 C 241.209,443.737 240.209,443.404 239.5,442.5C 239.5,429.167 239.5,415.833 239.5,402.5C 240.5,402.5 241.5,402.5 242.5,402.5C 242.5,416.167 242.5,429.833 242.5,443.5 Z"/></g>
<g><path style="opacity:1" fill="#202020" d="M 159.5,374.5 C 161.686,374.511 162.519,375.511 162,377.5C 153.908,387.757 146.408,398.424 139.5,409.5C 138.5,409 137.5,408.5 136.5,408C 142.383,401.118 147.883,393.952 153,386.5C 155.872,382.817 158.038,378.817 159.5,374.5 Z"/></g>
<g><path style="opacity:1" fill="#252525" d="M 109.5,402.5 C 110.239,402.369 110.906,402.536 111.5,403C 108.703,406.799 105.536,410.299 102,413.5C 102.044,411.721 102.711,410.055 104,408.5C 106.04,406.63 107.873,404.63 109.5,402.5 Z"/></g>
<g><path style="opacity:1" fill="#2e2e2e" d="M 330.5,395.5 C 335.313,403.119 339.647,411.119 343.5,419.5C 343.167,419.833 342.833,420.167 342.5,420.5C 338.221,412.275 334.221,403.942 330.5,395.5 Z"/></g>
<g><path style="opacity:1" fill="#202020" d="M 386.5,402.5 C 387.239,402.369 387.906,402.536 388.5,403C 390.647,406.115 393.147,408.948 396,411.5C 396.688,412.332 396.521,412.998 395.5,413.5C 392.075,410.085 389.075,406.419 386.5,402.5 Z"/></g>
<g><path style="opacity:1" fill="#1e1e1e" d="M 256.5,441.5 C 256.44,442.043 256.107,442.376 255.5,442.5C 254.83,440.709 254.163,439.042 253.5,437.5C 252.26,428.153 250.927,418.819 249.5,409.5C 249.688,407.897 249.188,406.563 248,405.5C 247.819,408.695 247.319,411.695 246.5,414.5C 246.5,410.5 246.5,406.5 246.5,402.5C 247.833,402.5 249.167,402.5 250.5,402.5C 252.25,415.574 254.25,428.574 256.5,441.5 Z"/></g>
<g><path style="opacity:1" fill="#292929" d="M 161.5,411.5 C 162.043,411.56 162.376,411.893 162.5,412.5C 161.162,415.176 159.829,417.842 158.5,420.5C 158.167,420.167 157.833,419.833 157.5,419.5C 158.847,416.807 160.18,414.14 161.5,411.5 Z"/></g>
<g><path style="opacity:1" fill="#252525" d="M 126.5,416.5 C 127.043,416.56 127.376,416.893 127.5,417.5C 126.197,419.968 124.697,422.301 123,424.5C 121.887,426.329 120.387,427.163 118.5,427C 121.383,423.624 124.049,420.124 126.5,416.5 Z"/></g>
<g><path style="opacity:1" fill="#222222" d="M 369.5,417.5 C 370.793,416.355 371.959,416.689 373,418.5C 374.667,420.833 376.333,423.167 378,425.5C 378.688,426.332 378.521,426.998 377.5,427.5C 374.814,424.097 372.147,420.764 369.5,417.5 Z"/></g>
<g><path style="opacity:1" fill="#171717" d="M 349.5,424.5 C 350.675,424.281 351.675,424.614 352.5,425.5C 355.5,430.833 358.5,436.167 361.5,441.5C 361.167,442.5 360.5,443.167 359.5,443.5C 355.356,437.544 352.023,431.211 349.5,424.5 Z"/></g>
<g><path style="opacity:1" fill="#171717" d="M 145.5,424.5 C 146.995,424.415 147.995,425.081 148.5,426.5C 145.193,432.459 141.527,438.125 137.5,443.5C 136.692,443.192 136.025,442.692 135.5,442C 138.983,436.193 142.317,430.36 145.5,424.5 Z"/></g>
<g><path style="opacity:1" fill="#767676" d="M 249.5,409.5 C 248.515,413.634 248.182,417.968 248.5,422.5C 247.833,428.833 247.167,435.167 246.5,441.5C 246.5,432.5 246.5,423.5 246.5,414.5C 247.319,411.695 247.819,408.695 248,405.5C 249.188,406.563 249.688,407.897 249.5,409.5 Z"/></g>
<g><path style="opacity:1" fill="#2b2b2b" d="M 248.5,422.5 C 248.83,429.532 248.497,436.532 247.5,443.5C 246.702,443.043 246.369,442.376 246.5,441.5C 247.167,435.167 247.833,428.833 248.5,422.5 Z"/></g>
<g><path style="opacity:1" fill="#1e1e1e" d="M 332.5,437.5 C 335.793,441.212 337.626,445.545 338,450.5C 335.614,446.396 333.781,442.062 332.5,437.5 Z"/></g>
<g><path style="opacity:1" fill="#747474" d="M 253.5,437.5 C 254.163,439.042 254.83,440.709 255.5,442.5C 256.107,442.376 256.44,442.043 256.5,441.5C 257.043,441.56 257.376,441.893 257.5,442.5C 256.311,443.429 254.978,443.762 253.5,443.5C 253.5,441.5 253.5,439.5 253.5,437.5 Z"/></g>
<g><path style="opacity:1" fill="#1f1f1f" d="M 163.5,437.5 C 164.376,437.369 165.043,437.702 165.5,438.5C 164.027,442.779 162.027,446.779 159.5,450.5C 159.167,450.167 158.833,449.833 158.5,449.5C 160.731,445.708 162.398,441.708 163.5,437.5 Z"/></g>
<g><path style="opacity:1" fill="#707070" d="M 239.5,442.5 C 240.209,443.404 241.209,443.737 242.5,443.5C 241.292,444.782 239.958,444.782 238.5,443.5C 238.624,442.893 238.957,442.56 239.5,442.5 Z"/></g>
<g><path style="opacity:1" fill="#252525" d="M 183.5,445.5 C 184.497,445.47 185.164,445.97 185.5,447C 184.383,451.025 182.883,454.858 181,458.5C 181.289,454.112 182.123,449.778 183.5,445.5 Z"/></g>
<g><path style="opacity:1" fill="#0c0c0c" d="M 250.5,452.5 C 250.5,459.5 250.5,466.5 250.5,473.5C 249.5,473.5 248.5,473.5 247.5,473.5C 247.5,466.5 247.5,459.5 247.5,452.5C 248.5,452.5 249.5,452.5 250.5,452.5 Z"/></g>
<g><path style="opacity:1" fill="#1a1a1a" d="M 204.5,451.5 C 205.497,451.47 206.164,451.97 206.5,453C 205.689,456.888 204.689,460.721 203.5,464.5C 203.167,463.833 202.833,463.167 202.5,462.5C 203.648,458.911 204.315,455.244 204.5,451.5 Z"/></g>
<g><path style="opacity:1" fill="#232323" d="M 312.5,445.5 C 314.815,448.908 316.482,452.741 317.5,457C 317.167,457.5 316.833,458 316.5,458.5C 314.359,454.41 313.025,450.076 312.5,445.5 Z"/></g>
<g><path style="opacity:1" fill="#161616" d="M 291.5,451.5 C 292.117,451.611 292.617,451.944 293,452.5C 293.644,456.221 294.477,459.887 295.5,463.5C 295.167,463.833 294.833,464.167 294.5,464.5C 292.863,460.317 291.863,455.984 291.5,451.5 Z"/></g>
<g><path style="opacity:1" fill="#b3b3b3" d="M 250.5,452.5 C 249.5,452.5 248.5,452.5 247.5,452.5C 247.5,459.5 247.5,466.5 247.5,473.5C 246.508,466.352 246.175,459.019 246.5,451.5C 248.099,451.232 249.432,451.566 250.5,452.5 Z"/></g>
<g><path style="opacity:1" fill="#292929" d="M 226.5,454.5 C 227.835,459.074 227.668,463.74 226,468.5C 225.352,463.796 225.519,459.129 226.5,454.5 Z"/></g>
<g><path style="opacity:1" fill="#252525" d="M 269.5,454.5 C 271.117,455.589 271.95,457.256 272,459.5C 272.821,462.554 272.655,465.554 271.5,468.5C 270.723,463.825 270.056,459.158 269.5,454.5 Z"/></g>
</svg>
