<svg id="clock" xmlns="http://www.w3.org/2000/svg" xmlns:xlink="http://www.w3.org/1999/xlink" width="713" height="713" viewBox="0 0 713 713">
  <defs>
    <style>
      .cls-1 {
        fill: #f5f5f5;
      }

      .cls-2, .cls-3 {
        fill: none;
      }

      .cls-2, .cls-7 {
        stroke: #fff;
      }

      .cls-2 {
        stroke-width: 12px;
      }

      .cls-2, .cls-4, .cls-5, .cls-6 {
        fill-rule: evenodd;
      }

      .cls-3, .cls-5, .cls-6 {
        stroke: #000;
      }

      .cls-3 {
        stroke-width: 17px;
      }

      .cls-5, .cls-7 {
        stroke-width: 1px;
      }

      .cls-6 {
        stroke-width: 0;
      }

      .cls-7 {
        stroke-linejoin: round;
        filter: url(#filter);
      }
    </style>
    <filter id="filter" filterUnits="userSpaceOnUse">
      <feOffset result="offset" dx="1.678" dy="2.487" in="SourceAlpha"/>
      <feGaussianBlur result="blur" stdDeviation="2"/>
      <feFlood result="flood" flood-opacity="0.21"/>
      <feComposite result="composite" operator="in" in2="blur"/>
      <feBlend result="blend" in="SourceGraphic"/>
    </filter>
  </defs>
  <circle id="near-white_clock_background" data-name="near-white clock background" class="cls-1" cx="356" cy="356" r="348"/>
  <path id="white_ring" data-name="white ring" class="cls-2" d="M356,18c188.881,0,342,151.1,342,337.5S544.881,693,356,693,14,541.9,14,355.5,167.119,18,356,18Z"/>
  <circle id="black_ring" data-name="black ring" class="cls-3" cx="356" cy="356" r="348"/>
  <g id="lines">
    <path id="Line_25" data-name="Line 25" class="cls-4" d="M546.366,87.847l3.268,2.307-20.3,28.763-3.268-2.307Z"/>
    <path id="Line_26" data-name="Line 26" class="cls-4" d="M573.489,109.69l3.022,2.62L553.383,139l-3.023-2.619Z"/>
    <path id="Line_27" data-name="Line 27" class="cls-4" d="M597.7,135.481l2.6,3.038-26,22.286-2.6-3.037Z"/>
    <path id="Line_28" data-name="Line 28" class="cls-4" d="M618.764,161.427l2.472,3.146L593.9,186.05l-2.471-3.145Z"/>
    <path id="Line_29" data-name="Line 29" class="cls-4" d="M655.239,220.151l1.522,3.7-33.132,13.643-1.523-3.7Z"/>
    <path id="Line_30" data-name="Line 30" class="cls-4" d="M667.4,252.091l1.194,3.818-33.7,10.53-1.193-3.818Z"/>
    <path id="Line_31" data-name="Line 31" class="cls-4" d="M677.566,285.048l0.868,3.9-35.8,7.957-0.867-3.9Z"/>
    <path id="Line_32" data-name="Line 32" class="cls-4" d="M681.752,319.015l0.5,3.97-34.768,4.346-0.5-3.97Z"/>
    <path id="Line_33" data-name="Line 33" class="cls-4" d="M683.221,388.012l-0.442,3.976-35.32-3.925,0.442-3.975Z"/>
    <path id="Line_34" data-name="Line 34" class="cls-4" d="M677.434,421.048l-0.868,3.9-34-7.556,0.867-3.905Z"/>
    <path id="Line_35" data-name="Line 35" class="cls-4" d="M668.632,455.1l-1.264,3.794-33.19-11.063,1.265-3.794Z"/>
    <path id="Line_36" data-name="Line 36" class="cls-4" d="M656.761,486.151l-1.522,3.7L622.5,476.367l1.523-3.7Z"/>
    <path id="Line_37" data-name="Line 37" class="cls-4" d="M622.183,546.387l-2.366,3.226-27.6-20.242,2.365-3.226Z"/>
    <path id="Line_38" data-name="Line 38" class="cls-4" d="M601.357,572.53l-2.714,2.94-25.77-23.789,2.713-2.939Z"/>
    <path id="Line_39" data-name="Line 39" class="cls-4" d="M576.573,596.764l-3.146,2.472-20.977-26.7,3.146-2.472Z"/>
    <path id="Line_40" data-name="Line 40" class="cls-4" d="M550.627,618.838l-3.254,2.324-20.326-28.455,3.255-2.325Z"/>
    <path id="Line_41" data-name="Line 41" class="cls-4" d="M491.81,654.148l-3.62,1.7-14.465-30.74,3.619-1.7Z"/>
    <path id="Line_42" data-name="Line 42" class="cls-4" d="M459.919,667.436l-3.838,1.128-9.837-33.446,3.838-1.129Z"/>
    <path id="Line_43" data-name="Line 43" class="cls-4" d="M425.966,675.631l-3.932.738-6.167-32.891,3.932-.737Z"/>
    <path id="Line_44" data-name="Line 44" class="cls-4" d="M392,681.883l-3.994.234-2.076-35.3,3.993-.235Z"/>
    <path id="Line_45" data-name="Line 45" class="cls-4" d="M322.988,682.221l-3.976-.442,3.78-34.021,3.976,0.442Z"/>
    <path id="Line_46" data-name="Line 46" class="cls-4" d="M288.947,676.458l-3.894-.916,8.115-34.488,3.894,0.916Z"/>
    <path id="Line_47" data-name="Line 47" class="cls-4" d="M255.849,667.761l-3.7-1.522,12.717-30.885,3.7,1.523Z"/>
    <path id="Line_48" data-name="Line 48" class="cls-4" d="M224.765,654.941l-3.53-1.882,16.174-30.326,3.529,1.882Z"/>
    <path id="Line_49" data-name="Line 49" class="cls-4" d="M164.573,622.236l-3.146-2.472,21.726-27.65,3.145,2.471Z"/>
    <path id="Line_50" data-name="Line 50" class="cls-4" d="M137.414,600.414l-2.828-2.828,24.96-24.96,2.828,2.828Z"/>
    <path id="Line_51" data-name="Line 51" class="cls-4" d="M113.361,576.466l-2.722-2.932L136.733,549.3l2.722,2.931Z"/>
    <path id="Line_52" data-name="Line 52" class="cls-4" d="M93.138,549.644l-2.277-3.288,27.946-19.348,2.277,3.289Z"/>
    <path id="Line_53" data-name="Line 53" class="cls-4" d="M57.743,489.857l-1.486-3.714,32.65-13.06,1.486,3.714Z"/>
    <path id="Line_54" data-name="Line 54" class="cls-4" d="M44.666,458.886l-1.331-3.772,32.89-11.608,1.331,3.772Z"/>
    <path id="Line_55" data-name="Line 55" class="cls-4" d="M35.312,424.976l-0.624-3.952,33.275-5.253,0.624,3.951Z"/>
    <path id="Line_56" data-name="Line 56" class="cls-4" d="M29.105,391L28.895,387l35.66-1.877,0.21,3.994Z"/>
    <path id="Line_57" data-name="Line 57" class="cls-4" d="M29.875,323L30.125,319l34.338,2.146-0.249,3.992Z"/>
    <path id="Line_58" data-name="Line 58" class="cls-4" d="M34.566,287.952l0.868-3.9,35.374,7.861-0.868,3.9Z"/>
    <path id="Line_59" data-name="Line 59" class="cls-4" d="M44.436,255.919l1.129-3.838,33.407,9.826-1.129,3.837Z"/>
    <path id="Line_60" data-name="Line 60" class="cls-4" d="M55.2,223.832l1.6-3.664,32.147,14.064-1.6,3.665Z"/>
    <path id="Line_61" data-name="Line 61" class="cls-4" d="M89.764,163.573l2.471-3.146,28.314,22.247-2.472,3.145Z"/>
    <path id="Line_62" data-name="Line 62" class="cls-4" d="M111.586,136.414l2.828-2.828,25.38,25.38-2.828,2.828Z"/>
    <path id="Line_63" data-name="Line 63" class="cls-4" d="M135.448,112.261l3.1-2.522,22.093,27.19-3.105,2.523Z"/>
    <path id="Line_64" data-name="Line 64" class="cls-4" d="M161.352,90.133l3.3-2.266L185.155,117.7l-3.3,2.266Z"/>
    <path id="Line_74" data-name="Line 74" class="cls-4" d="M68.46,197.039l7.08-12.078,57.254,33.563-7.08,12.078Z"/>
    <path id="Line_66" data-name="Line 66" class="cls-5" d="M27,362V348H94v14H27Z"/>
    <path id="Line_67" data-name="Line 67" class="cls-5" d="M76.127,525.318L68.979,513.28l57.1-33.9,7.148,12.038Z"/>
    <path id="Line_68" data-name="Line 68" class="cls-5" d="M198.084,642.506l-11.765-7.59,34.973-54.208,11.764,7.59Z"/>
    <path id="Line_69" data-name="Line 69" class="cls-5" d="M363,683.676l-14,.378-1.756-64.945,14-.379Z"/>
    <path id="Line_70" data-name="Line 70" class="cls-5" d="M525.377,634.974L513.27,642l-31.925-54.982,12.107-7.03Z"/>
    <path id="Line_71" data-name="Line 71" class="cls-5" d="M643.228,513.743l-7.266,11.967-55.88-33.928,7.265-11.967Z"/>
    <path id="Line_72" data-name="Line 72" class="cls-5" d="M684,348v14H617V348h67Z"/>
    <path id="Line_73" data-name="Line 73" class="cls-5" d="M636.242,184.094l7.516,11.812L588.4,231.134l-7.516-11.811Z"/>
    <path id="Line_12" data-name="Line 12" class="cls-6" d="M350,26h14V93H350V26Z"/>
    <path id="Line_2" data-name="Line 2" class="cls-4" d="M388,28.9l4,0.19L390.276,65.25l-4-.19Z"/>
    <path id="Line_3" data-name="Line 3" class="cls-4" d="M423.03,33.652l3.94,0.7L420.8,69.33l-3.939-.7Z"/>
    <path id="Line_4" data-name="Line 4" class="cls-4" d="M456.1,43.368l3.794,1.265L448.78,77.985l-3.795-1.265Z"/>
    <path id="Line_5" data-name="Line 5" class="cls-4" d="M488.168,55.2l3.664,1.6-14.2,32.459-3.664-1.6Z"/>
    <path id="Line_6" data-name="Line 6" class="cls-4" d="M320.012,29.221l3.976-.442L327.957,64.5l-3.975.442Z"/>
    <path id="Line_7" data-name="Line 7" class="cls-4" d="M285.066,34.509l3.868-1.018,9.324,35.429-3.869,1.018Z"/>
    <path id="Line_8" data-name="Line 8" class="cls-4" d="M253.127,43.7l3.746-1.4L269.5,75.965l-3.745,1.4Z"/>
    <path id="Line_9" data-name="Line 9" class="cls-4" d="M220.143,55.743l3.714-1.486L236.942,86.97l-3.714,1.486Z"/>
    <path id="Line_10" data-name="Line 10" class="cls-4" d="M181.56,76.916l12.18-6.9,32.82,57.917-12.181,6.9Z"/>
    <path id="Line_11" data-name="Line 11" class="cls-4" d="M514.648,66.931l12.077,7.08-33.7,57.495-12.078-7.08Z"/>
  </g>
  <circle id="middle_dot" data-name="middle dot" cx="359" cy="356" r="19"/>
  <g style="fill: ; filter: url(#filter)">
    <g id="_1-12_shape" data-name="1-12 shape" class="cls-7" style="stroke: inherit; filter: none; fill: inherit">
      <path id="_1" data-name="1" class="cls-4" d="M469.47,135.476q-6.318,7.136-14.4,8.736v9.639a28.5,28.5,0,0,0,13.289-5.25v47.947h10.7V135.476h-9.6Z"/>
      <path id="_12" data-name="12" class="cls-4" d="M332.246,105.933q-6.316,7.137-14.4,8.736v9.639a28.5,28.5,0,0,0,13.289-5.25v47.947h10.7V105.933h-9.6Zm47.46,36.955q8.7-10.5,8.7-19.318a19.051,19.051,0,0,0-1.6-7.957,17.335,17.335,0,0,0-7.3-8.039,20.708,20.708,0,0,0-10.623-2.748q-10.295,0-21,9.72l6.153,6.686q6.849-6.972,13.207-6.973a9.966,9.966,0,0,1,7.2,2.5,9.325,9.325,0,0,1,2.6,7.055q0,5.127-5.045,11.853-6.357,8.451-23.214,22.887v8.449h39.252v-8.982H364a129.4,129.4,0,0,0,15.709-15.135h0Z"/>
      <path id="_11" data-name="11" class="cls-4" d="M226.944,138.483q-6.316,7.137-14.4,8.737v9.638a28.49,28.49,0,0,0,13.289-5.25v47.948h10.7V138.483h-9.6Zm30.848,0q-6.316,7.137-14.4,8.737v9.638a28.49,28.49,0,0,0,13.289-5.25v47.948h10.7V138.483h-9.6Z"/>
      <path id="_2" data-name="2" class="cls-4" d="M562.684,249.88q8.694-10.5,8.7-19.318a19.048,19.048,0,0,0-1.6-7.957,17.338,17.338,0,0,0-7.3-8.039,20.715,20.715,0,0,0-10.624-2.749q-10.295,0-21,9.721l6.153,6.686q6.849-6.972,13.207-6.973a9.962,9.962,0,0,1,7.2,2.5,9.325,9.325,0,0,1,2.605,7.055q0,5.127-5.045,11.853-6.358,8.45-23.215,22.887V274H571.01v-8.982H546.975a129.625,129.625,0,0,0,15.709-15.135h0Z"/>
      <path id="_3" data-name="3" class="cls-4" d="M576.877,355.453q15.914-.206,15.914,10.135a11.936,11.936,0,0,1-1.927,7.029q-3.774,5.353-13.371,5.354a44.289,44.289,0,0,1-13.207-2.5v9.474a44.363,44.363,0,0,0,13.453,2.01q11.36,0,18.58-4.962,8.284-5.7,8.285-16.529,0-9.145-6.193-13.78a20.3,20.3,0,0,0-11.81-4.143l14.558-14.673v-8.175h-37.2v9.229h23.5l-16.037,16.037v5.783q2.338-.251,5.455-0.287h0Z"/>
      <path id="_4" data-name="4" class="cls-4" d="M520,480.088h28.136v13.166h10.582V480.088H567.9v-8.819h-9.188V451.541H548.134v19.728H532.379L551.8,432.181H541.039L520,472.787v7.3Z"/>
      <path id="_5" data-name="5" class="cls-4" d="M460.961,577.287q12.622,0,20.125-5.3,8.58-6.109,8.58-18.239a20.609,20.609,0,0,0-2.74-10.781q-5.795-9.7-23.09-9.7-0.854,0-2.83.135V519.2h25.561V509.1h-37.33v34.59a59.425,59.425,0,0,1,10.017-.943q17.61,0,17.61,11.21,0,6.816-4.672,10.358-4.224,3.139-11.231,3.139a40.1,40.1,0,0,1-14.33-2.83v10.466a45.878,45.878,0,0,0,14.33,2.2h0Z"/>
      <path id="_6" data-name="6" class="cls-4" d="M356.541,542.9q-13.126,0-20.262,9.557-6.358,8.53-6.357,22.107,0,31.418,22.681,31.418a21.939,21.939,0,0,0,10.91-2.666q9.845-5.537,9.844-18.539a19.82,19.82,0,0,0-2.5-10.336q-5-8.367-16.57-8.367a25.193,25.193,0,0,0-12.346,2.871,26.11,26.11,0,0,1,2.215-9.352q3.938-8.367,13.74-8.367a25.624,25.624,0,0,1,8.778,1.559l1.927-7.629a32.681,32.681,0,0,0-12.058-2.256h0Zm-4.165,31.623q9.291,0,9.292,10.131,0,12.55-9.087,12.551-10.683,0-10.683-18.827,3.847-3.854,10.478-3.855h0Z"/>
      <path id="_7" data-name="7" class="cls-4" d="M229.9,521.9h29.68l-23.792,51.884h11.792l24.648-53.443v-7.629H229.9V521.9Z"/>
      <path id="_8" data-name="8" class="cls-4" d="M175.94,460q8.9-5.865,8.9-13.986a13.151,13.151,0,0,0-2.748-8.531q-5.375-6.6-16.94-6.6a29.936,29.936,0,0,0-10.623,1.723q-9.8,3.732-9.8,13.33,0,8.367,7.875,14.027-10.828,6.974-10.828,16a15.321,15.321,0,0,0,7.095,13.371q6.44,4.39,15.709,4.389a31.878,31.878,0,0,0,11.813-2.092q11.525-4.552,11.525-15.668,0-10.376-11.976-15.955h0Zm-15.217-6.029q-5.006-3.157-5-7.957a7.446,7.446,0,0,1,1.148-4.225q2.256-3.4,7.342-3.4a10.064,10.064,0,0,1,6.481,1.969,7.235,7.235,0,0,1,2.707,6.029q0,5.743-6.6,10.131a22.046,22.046,0,0,1-6.07-2.543h0ZM175.9,477.189a7.153,7.153,0,0,1-3.569,6.4,13.8,13.8,0,0,1-7.424,1.887q-11.607,0-11.607-9.393,0-6.644,8.408-11.443,14.192,5.209,14.192,12.551h0Z"/>
      <path id="_9" data-name="9" class="cls-4" d="M121.019,386.286q14.067,0,20.877-10.007,5.823-8.572,5.824-21.493,0-31.416-22.764-31.418-9.311,0-14.991,5.948t-5.68,15.3q0,8.7,5.209,13.678t13.945,4.984q7.547,0,12.264-2.789-1.724,17.678-15.791,17.677a31,31,0,0,1-10.665-2.173l-1.886,7.628a38.518,38.518,0,0,0,13.658,2.666h0Zm3.8-31.541q-8.841,0-8.841-10.336,0-12.222,9.046-12.222,10.724,0,10.724,18.826a16.565,16.565,0,0,1-10.929,3.732h0Z"/>
      <path id="_10" data-name="10" class="cls-4" d="M151.389,221.841q-6.317,7.137-14.4,8.736v9.639a28.5,28.5,0,0,0,13.289-5.25v47.947h10.7V221.841h-9.6Zm26.012,3.486q-10.419,8.82-10.418,27.071,0,12.837,5.783,21.779,6.276,9.72,17.432,9.721,11.2,0,17.513-9.721,5.661-8.736,5.661-21.779,0-13.084-5.661-21.78-6.317-9.72-17.513-9.72a19.175,19.175,0,0,0-12.8,4.429h0Zm19.318,7.342q5.044,5.782,5.045,19.729a49.913,49.913,0,0,1-1.23,11.607q-2.667,11.157-10.336,11.156a8.235,8.235,0,0,1-6.481-3.035q-5.127-5.905-5.127-19.728a49.2,49.2,0,0,1,1.231-11.608q2.706-11.115,10.377-11.115a8.245,8.245,0,0,1,6.521,2.994h0Z"/>
    </g>
  </g>
  <use xlink:href="#_1-12_shape" style="stroke: #fff; filter: none; fill: none"/>
</svg>
