<?xml version="1.0" encoding="UTF-8"?>
<!DOCTYPE svg PUBLIC "-//W3C//DTD SVG 1.1//EN" "http://www.w3.org/Graphics/SVG/1.1/DTD/svg11.dtd">
<svg xmlns="http://www.w3.org/2000/svg" version="1.1" width="144px" height="144px" style="shape-rendering:geometricPrecision; text-rendering:geometricPrecision; image-rendering:optimizeQuality; fill-rule:evenodd; clip-rule:evenodd" xmlns:xlink="http://www.w3.org/1999/xlink">
<g><path style="opacity:0.983" fill="#ff9800" d="M 70.5,17.5 C 76.2416,21.7347 81.5749,26.568 86.5,32C 94.4931,32.4997 102.493,32.6664 110.5,32.5C 110.334,40.5069 110.5,48.5069 111,56.5C 116.015,61.3481 120.848,66.3481 125.5,71.5C 120.848,76.6519 116.015,81.6519 111,86.5C 110.5,94.4931 110.334,102.493 110.5,110.5C 102.493,110.334 94.4931,110.5 86.5,111C 81.6519,116.015 76.6519,120.848 71.5,125.5C 66.3481,120.848 61.3481,116.015 56.5,111C 48.5069,110.5 40.5069,110.334 32.5,110.5C 32.6664,102.493 32.4997,94.4931 32,86.5C 26.9849,81.6519 22.1515,76.6519 17.5,71.5C 22.1515,66.3481 26.9849,61.3481 32,56.5C 32.4997,48.5069 32.6664,40.5069 32.5,32.5C 40.5069,32.6664 48.5069,32.4997 56.5,32C 61.3699,27.2979 66.0366,22.4646 70.5,17.5 Z"/></g>
<g><path style="opacity:1" fill="#ffea3a" d="M 64.5,38.5 C 84.4572,36.9718 97.6239,45.6385 104,64.5C 106.016,84.4792 97.5164,97.6458 78.5,104C 58.5208,106.016 45.3542,97.5164 39,78.5C 37.1695,58.4789 45.6695,45.1455 64.5,38.5 Z"/></g>
</svg>
