<?xml version="1.0" standalone="no"?>
<!DOCTYPE svg PUBLIC "-//W3C//DTD SVG 20010904//EN"
 "http://www.w3.org/TR/2001/REC-SVG-20010904/DTD/svg10.dtd">
<svg version="1.0" xmlns="http://www.w3.org/2000/svg"
 width="96.000000pt" height="96.000000pt" viewBox="0 0 96.000000 96.000000"
 preserveAspectRatio="xMidYMid meet">

<g transform="translate(0.000000,96.000000) scale(0.100000,-0.100000)"
fill="#000000" stroke="none">
<path d="M426 869 c-62 -15 -153 -68 -197 -116 -22 -24 -55 -74 -72 -111 -29
-61 -32 -76 -32 -163 0 -90 2 -99 37 -171 45 -91 103 -147 196 -191 61 -29 76
-32 162 -32 86 0 102 3 160 31 68 32 133 82 151 116 16 31 -5 48 -44 37 -49
-14 -128 -11 -180 7 -57 19 -138 90 -175 153 -24 40 -27 56 -27 131 0 110 26
171 101 239 30 27 54 54 54 59 0 23 -63 28 -134 11z"/>
</g>
</svg>
