<?xml version="1.0" encoding="UTF-8"?>
<!DOCTYPE svg PUBLIC "-//W3C//DTD SVG 1.1//EN" "http://www.w3.org/Graphics/SVG/1.1/DTD/svg11.dtd">
<svg xmlns="http://www.w3.org/2000/svg" version="1.1" width="96px" height="96px" style="shape-rendering:geometricPrecision; text-rendering:geometricPrecision; image-rendering:optimizeQuality; fill-rule:evenodd; clip-rule:evenodd" xmlns:xlink="http://www.w3.org/1999/xlink">
<g><path style="opacity:0.987" fill="#2195f3" d="M 43.5,11.5 C 46.1667,11.5 48.8333,11.5 51.5,11.5C 51.5,14.8333 51.5,18.1667 51.5,21.5C 54.2469,21.1866 56.9135,21.52 59.5,22.5C 55.7234,27.0648 51.7234,31.3981 47.5,35.5C 43.2766,31.3981 39.2766,27.0648 35.5,22.5C 38.0865,21.52 40.7531,21.1866 43.5,21.5C 43.5,18.1667 43.5,14.8333 43.5,11.5 Z"/></g>
<g><path style="opacity:0.976" fill="#ff9800" d="M 83.5,75.5 C 78.8333,75.5 74.1667,75.5 69.5,75.5C 68.4544,61.6215 60.9544,54.2881 47,53.5C 33.5917,54.7415 26.4251,62.0749 25.5,75.5C 20.8333,75.5 16.1667,75.5 11.5,75.5C 14.4625,72.0359 17.6291,68.7025 21,65.5C 21.4994,60.1771 21.666,54.8437 21.5,49.5C 26.8437,49.666 32.1771,49.4994 37.5,49C 40.682,45.6507 44.0154,42.484 47.5,39.5C 50.9846,42.484 54.318,45.6507 57.5,49C 62.8229,49.4994 68.1563,49.666 73.5,49.5C 73.334,54.8437 73.5006,60.1771 74,65.5C 77.3709,68.7025 80.5375,72.0359 83.5,75.5 Z"/></g>
<g><path style="opacity:1" fill="#ffe93a" d="M 69.5,75.5 C 54.8333,75.5 40.1667,75.5 25.5,75.5C 26.4251,62.0749 33.5917,54.7415 47,53.5C 60.9544,54.2881 68.4544,61.6215 69.5,75.5 Z"/></g>
<g><path style="opacity:1" fill="#1975d2" d="M 11.5,75.5 C 16.1667,75.5 20.8333,75.5 25.5,75.5C 40.1667,75.5 54.8333,75.5 69.5,75.5C 74.1667,75.5 78.8333,75.5 83.5,75.5C 85.5,75.5 87.5,75.5 89.5,75.5C 89.5,78.1667 89.5,80.8333 89.5,83.5C 61.5,83.5 33.5,83.5 5.5,83.5C 5.5,80.8333 5.5,78.1667 5.5,75.5C 7.5,75.5 9.5,75.5 11.5,75.5 Z"/></g>
</svg>
