<?xml version="1.0" encoding="UTF-8"?>
<!DOCTYPE svg PUBLIC "-//W3C//DTD SVG 1.1//EN" "http://www.w3.org/Graphics/SVG/1.1/DTD/svg11.dtd">
<svg xmlns="http://www.w3.org/2000/svg" version="1.1" width="96px" height="96px" style="shape-rendering:geometricPrecision; text-rendering:geometricPrecision; image-rendering:optimizeQuality; fill-rule:evenodd; clip-rule:evenodd" xmlns:xlink="http://www.w3.org/1999/xlink">
<g><path style="opacity:0.962" fill="#fe9900" d="M 63.5,31.5 C 61.1667,31.5 58.8333,31.5 56.5,31.5C 49.6357,23.2746 41.3024,21.4413 31.5,26C 21.3562,35.2888 20.8562,45.1222 30,55.5C 30.1862,58.0356 30.6862,60.369 31.5,62.5C 31.5,62.8333 31.5,63.1667 31.5,63.5C 27.5,63.5 23.5,63.5 19.5,63.5C 19.6655,59.4862 19.4988,55.4862 19,51.5C 15.4506,48.287 12.2839,44.787 9.5,41C 12.2839,37.213 15.4506,33.713 19,30.5C 19.4986,26.8484 19.6653,23.1817 19.5,19.5C 23.1817,19.6653 26.8484,19.4986 30.5,19C 33.713,15.4506 37.213,12.2839 41,9.5C 44.787,12.2839 48.287,15.4506 51.5,19C 55.4862,19.4988 59.4862,19.6655 63.5,19.5C 63.5,23.5 63.5,27.5 63.5,31.5 Z"/></g>
<g><path style="opacity:1" fill="#fce83b" d="M 56.5,31.5 C 39.3828,34.7286 31.0495,45.0619 31.5,62.5C 30.6862,60.369 30.1862,58.0356 30,55.5C 20.8562,45.1222 21.3562,35.2888 31.5,26C 41.3024,21.4413 49.6357,23.2746 56.5,31.5 Z"/></g>
<g><path style="opacity:0.945" fill="#15aec1" d="M 56.5,31.5 C 58.8333,31.5 61.1667,31.5 63.5,31.5C 74.6714,32.8439 82.1714,38.8439 86,49.5C 90.4011,66.1947 84.9011,78.3614 69.5,86C 51.9142,90.788 39.4142,84.9547 32,68.5C 31.5065,66.8659 31.3398,65.1992 31.5,63.5C 31.5,63.1667 31.5,62.8333 31.5,62.5C 31.0495,45.0619 39.3828,34.7286 56.5,31.5 Z"/></g>
<g><path style="opacity:1" fill="#eaebec" d="M 53.5,37.5 C 76.0579,37.885 84.2246,48.885 78,70.5C 67.6784,83.4617 56.0117,84.795 43,74.5C 33.0596,58.1695 36.5596,45.8362 53.5,37.5 Z"/></g>
<g><path style="opacity:1" fill="#161818" d="M 57.5,41.5 C 58.8333,41.5 60.1667,41.5 61.5,41.5C 60.9557,47.5727 61.6223,53.406 63.5,59C 60.5349,64.9076 57.8682,64.9076 55.5,59C 57.2587,53.3076 57.9254,47.4742 57.5,41.5 Z"/></g>
<g><path style="opacity:1" fill="#0099ac" d="M 57.5,57.5 C 58.5,57.5 59.5,57.5 60.5,57.5C 60.5,58.8333 60.5,60.1667 60.5,61.5C 59.5,61.5 58.5,61.5 57.5,61.5C 57.5,60.1667 57.5,58.8333 57.5,57.5 Z"/></g>
</svg>
