<svg xmlns="http://www.w3.org/2000/svg"  viewBox="0 0 32 32" width="96px" height="96px" baseProfile="basic"><polygon fill="#e6a71e" points="16,1.5 20.247,5.747 26.253,5.747 26.253,11.753 30.5,16 26.253,20.247 26.253,26.253 20.247,26.253 16,30.5 11.753,26.253 5.747,26.253 5.747,20.247 1.5,16 5.747,11.753 5.747,5.747 11.753,5.747"/><path fill="#302529" d="M16,31.914l-4.661-4.661H4.747v-6.592L0.086,16l4.661-4.661V4.747h6.592L16,0.086l4.661,4.661h6.592	v6.592L31.914,16l-4.661,4.661v6.592h-6.592L16,31.914z M6.747,25.253h5.42L16,29.086l3.833-3.833h5.42v-5.42L29.086,16	l-3.833-3.833v-5.42h-5.42L16,2.914l-3.833,3.833h-5.42v5.42L2.914,16l3.833,3.833V25.253z"/><path fill="#fff" d="M16,9c3.866,0,7,3.134,7,7s-3.134,7-7,7s-7-3.134-7-7S12.134,9,16,9 M16,8c-4.411,0-8,3.589-8,8	s3.589,8,8,8s8-3.589,8-8S20.411,8,16,8L16,8z"/></svg>