<?xml version="1.0" encoding="UTF-8"?>
<!DOCTYPE svg PUBLIC "-//W3C//DTD SVG 1.1//EN" "http://www.w3.org/Graphics/SVG/1.1/DTD/svg11.dtd">
<svg xmlns="http://www.w3.org/2000/svg" version="1.1" width="100px" height="100px" style="shape-rendering:geometricPrecision; text-rendering:geometricPrecision; image-rendering:optimizeQuality; fill-rule:evenodd; clip-rule:evenodd" xmlns:xlink="http://www.w3.org/1999/xlink">
<g><path style="opacity:0.934" fill="#000000" d="M 41.5,13.5 C 63.7973,10.9974 78.2973,20.3307 85,41.5C 87.8175,61.6559 79.9841,75.8226 61.5,84C 45.5384,88.4708 32.0384,84.6374 21,72.5C 20.5045,70.5273 20.3379,68.5273 20.5,66.5C 22.5273,66.3379 24.5273,66.5045 26.5,67C 38.126,73.7228 48.2926,71.8894 57,61.5C 64.1971,43.2287 58.1971,31.8954 39,27.5C 34.4431,28.0181 30.2764,29.5181 26.5,32C 24.5273,32.4955 22.5273,32.6621 20.5,32.5C 20.3379,30.4727 20.5045,28.4727 21,26.5C 26.4741,19.8286 33.3074,15.4953 41.5,13.5 Z"/></g>
</svg>
