<?xml version="1.0" standalone="no"?>
<!DOCTYPE svg PUBLIC "-//W3C//DTD SVG 20010904//EN"
 "http://www.w3.org/TR/2001/REC-SVG-20010904/DTD/svg10.dtd">
<svg version="1.0" xmlns="http://www.w3.org/2000/svg"
 width="100.000000pt" height="100.000000pt" viewBox="0 0 100.000000 100.000000"
 preserveAspectRatio="xMidYMid meet">

<g transform="translate(0.000000,100.000000) scale(0.100000,-0.100000)"
fill="#000000" stroke="none">
<path d="M854 769 c-10 -17 13 -36 27 -22 12 12 4 33 -11 33 -5 0 -12 -5 -16
-11z"/>
<path d="M438 731 c-97 -32 -155 -145 -114 -223 l15 -28 -48 0 c-56 0 -82 -20
-61 -45 19 -22 192 -21 211 1 12 14 9 20 -17 43 -64 54 -70 103 -21 157 57 62
152 57 206 -12 33 -42 27 -78 -20 -129 -35 -37 -39 -47 -29 -60 18 -22 192
-22 210 0 21 25 -5 45 -61 45 l-48 0 15 35 c19 45 18 71 -5 122 -26 56 -83 93
-152 98 -30 3 -66 1 -81 -4z m166 -45 c66 -50 84 -121 46 -184 -11 -18 -20
-35 -20 -37 0 -3 29 -5 65 -5 37 0 65 -4 65 -10 0 -6 -38 -10 -95 -10 -52 0
-95 2 -95 4 0 2 15 19 34 38 59 59 60 116 2 174 -59 59 -168 56 -220 -7 -50
-59 -46 -119 9 -168 19 -17 35 -33 35 -36 0 -3 -43 -5 -95 -5 -57 0 -95 4 -95
10 0 6 28 10 65 10 36 0 65 2 65 5 0 2 -9 19 -20 37 -62 103 29 224 162 215
42 -2 65 -10 92 -31z"/>
<path d="M114 719 c-10 -17 13 -36 27 -22 12 12 4 33 -11 33 -5 0 -12 -5 -16
-11z"/>
<path d="M448 634 c-16 -8 -28 -17 -28 -20 0 -2 12 2 28 9 15 8 34 17 42 20
13 5 13 5 0 6 -8 0 -27 -7 -42 -15z"/>
<path d="M540 630 c20 -13 33 -13 25 0 -3 6 -14 10 -23 10 -15 0 -15 -2 -2
-10z"/>
<path d="M591 573 c0 -12 -4 -30 -7 -40 -5 -17 -5 -17 6 0 6 10 9 28 7 40 -4
22 -4 22 -6 0z"/>
<path d="M230 355 c-10 -12 -10 -18 0 -30 19 -22 521 -22 540 0 10 12 10 18 0
30 -19 22 -521 22 -540 0z m530 -15 c0 -6 -93 -10 -260 -10 -167 0 -260 4
-260 10 0 6 93 10 260 10 167 0 260 -4 260 -10z"/>
<path d="M234 139 c-10 -17 13 -36 27 -22 12 12 4 33 -11 33 -5 0 -12 -5 -16
-11z"/>
</g>
</svg>
