<?xml version="1.0" standalone="no"?>
<!DOCTYPE svg PUBLIC "-//W3C//DTD SVG 20010904//EN"
 "http://www.w3.org/TR/2001/REC-SVG-20010904/DTD/svg10.dtd">
<svg version="1.0" xmlns="http://www.w3.org/2000/svg"
 width="66.000000pt" height="66.000000pt" viewBox="0 0 66.000000 66.000000"
 preserveAspectRatio="xMidYMid meet">

<g transform="translate(0.000000,66.000000) scale(0.100000,-0.100000)"
fill="#000000" stroke="none">
<path d="M233 607 c-52 -20 -120 -73 -146 -114 -37 -59 -50 -109 -45 -181 9
-152 116 -261 266 -270 126 -8 222 46 280 158 31 60 34 71 30 140 -2 47 -11
90 -23 115 -25 51 -89 115 -140 140 -48 23 -175 30 -222 12z m212 -31 c74 -34
81 -47 46 -80 -28 -27 -30 -27 -53 -12 -13 9 -40 21 -60 27 -36 9 -38 12 -38
49 0 37 2 40 28 40 15 0 50 -11 77 -24z m-183 -24 c-7 -2 -12 -9 -12 -16 0
-18 -21 -35 -36 -29 -21 8 -17 43 5 43 10 0 25 7 32 16 10 12 14 13 18 3 2 -7
-1 -15 -7 -17z m-100 -69 c24 -25 25 -30 12 -48 -8 -11 -19 -36 -25 -57 -9
-36 -12 -38 -49 -38 -37 0 -40 2 -40 28 1 41 49 142 69 142 4 0 19 -12 33 -27z
m231 3 c106 -44 138 -178 64 -263 -56 -64 -127 -79 -201 -43 -100 48 -126 174
-53 257 53 60 122 78 190 49z m149 -53 c10 -9 21 -13 25 -9 4 4 1 11 -7 16
-13 8 -12 10 3 10 24 0 22 -32 -4 -53 -24 -21 -50 -16 -48 10 1 17 2 17 6 1 2
-10 9 -18 14 -18 14 0 11 22 -8 42 -20 23 -6 24 19 1z m58 -140 c0 -32 -40
-122 -62 -140 -12 -10 -20 -7 -42 16 -27 28 -27 30 -12 53 9 13 21 40 27 61 9
35 12 37 49 37 37 0 40 -2 40 -27z m-495 -53 c3 -35 1 -39 -11 -29 -11 9 -12
14 -3 19 7 5 8 10 1 14 -6 3 -9 14 -7 24 2 9 4 19 4 21 3 16 13 -15 16 -49z
m34 26 c9 -10 8 -15 -4 -20 -10 -4 -15 1 -15 14 0 24 4 25 19 6z m11 -36 c0
-5 -6 -10 -12 -10 -9 0 -8 -4 2 -10 9 -6 10 -10 3 -10 -6 0 -15 5 -18 10 -7
12 2 30 16 30 5 0 9 -4 9 -10z m133 -81 c35 -9 37 -12 37 -49 0 -37 -2 -40
-27 -40 -31 0 -127 42 -138 60 -4 7 4 24 20 40 26 27 30 28 49 14 12 -8 38
-19 59 -25z m160 -5 c-4 -11 1 -22 12 -30 18 -13 17 -14 -6 -14 -13 0 -35 -7
-48 -16 -22 -16 -22 -16 -10 5 12 17 11 22 -4 33 -16 12 -15 13 10 15 15 0 29
6 31 12 2 6 8 11 13 11 4 0 6 -7 2 -16z"/>
<path d="M380 555 c0 -8 3 -14 8 -14 19 3 33 -2 27 -11 -3 -5 3 -10 14 -10 14
0 19 5 15 15 -4 8 -12 15 -20 15 -8 0 -14 5 -14 10 0 6 -7 10 -15 10 -8 0 -15
-7 -15 -15z"/>
<path d="M210 530 c0 -5 7 -10 15 -10 8 0 15 5 15 10 0 6 -7 10 -15 10 -8 0
-15 -4 -15 -10z"/>
<path d="M89 425 c-3 -11 -2 -29 2 -40 6 -17 8 -17 8 -2 1 19 17 23 23 5 3 -8
6 -7 10 3 3 9 2 22 -3 30 -6 10 -9 10 -9 2 0 -19 -18 -15 -22 5 -3 15 -5 14
-9 -3z"/>
<path d="M320 455 c0 -8 5 -15 10 -15 6 0 10 7 10 15 0 8 -4 15 -10 15 -5 0
-10 -7 -10 -15z"/>
<path d="M230 421 c0 -5 5 -13 10 -16 6 -3 10 -2 10 4 0 5 -4 13 -10 16 -5 3
-10 2 -10 -4z"/>
<path d="M294 421 c-65 -28 -84 -113 -35 -162 91 -91 230 36 144 131 -30 32
-75 45 -109 31z m91 -36 c63 -62 -10 -175 -87 -134 -34 18 -47 40 -48 77 0 43
38 82 80 82 19 0 40 -9 55 -25z"/>
<path d="M290 370 c-18 -18 -27 -40 -15 -40 5 0 55 50 55 55 0 12 -22 3 -40
-15z"/>
<path d="M417 423 c-4 -3 -7 -11 -7 -17 0 -6 5 -5 12 2 6 6 9 14 7 17 -3 3 -9
2 -12 -2z"/>
<path d="M195 330 c-3 -5 1 -10 10 -10 9 0 13 5 10 10 -3 6 -8 10 -10 10 -2 0
-7 -4 -10 -10z"/>
<path d="M445 330 c-3 -5 1 -10 10 -10 9 0 13 5 10 10 -3 6 -8 10 -10 10 -2 0
-7 -4 -10 -10z"/>
<path d="M237 243 c-4 -3 -7 -11 -7 -17 0 -6 5 -5 12 2 6 6 9 14 7 17 -3 3 -9
2 -12 -2z"/>
<path d="M410 241 c0 -5 5 -13 10 -16 6 -3 10 -2 10 4 0 5 -4 13 -10 16 -5 3
-10 2 -10 -4z"/>
<path d="M320 195 c0 -8 5 -15 10 -15 6 0 10 7 10 15 0 8 -4 15 -10 15 -5 0
-10 -7 -10 -15z"/>
<path d="M530 273 c6 -3 6 -11 -1 -25 -7 -13 -8 -23 -1 -30 13 -13 32 -2 32
18 0 8 5 12 10 9 6 -3 10 -1 10 5 0 7 -8 9 -20 5 -13 -4 -20 -2 -18 5 2 7 -3
14 -10 16 -7 1 -8 0 -2 -3z m20 -43 c0 -5 -4 -10 -10 -10 -5 0 -10 5 -10 10 0
6 5 10 10 10 6 0 10 -4 10 -10z"/>
<path d="M206 128 c-18 -10 -17 -12 15 -29 19 -10 39 -18 44 -18 6 0 -6 8 -25
19 -31 16 -33 19 -16 26 13 5 23 1 34 -12 14 -18 14 -18 8 -1 -3 10 -6 21 -6
23 0 8 -35 3 -54 -8z"/>
<path d="M406 115 c4 -8 10 -12 15 -9 14 8 10 24 -6 24 -9 0 -12 -6 -9 -15z"/>
</g>
</svg>
