<?xml version="1.0" encoding="UTF-8"?>
<!DOCTYPE svg PUBLIC "-//W3C//DTD SVG 1.1//EN" "http://www.w3.org/Graphics/SVG/1.1/DTD/svg11.dtd">
<svg xmlns="http://www.w3.org/2000/svg" version="1.1" width="100px" height="100px" style="shape-rendering:geometricPrecision; text-rendering:geometricPrecision; image-rendering:optimizeQuality; fill-rule:evenodd; clip-rule:evenodd" xmlns:xlink="http://www.w3.org/1999/xlink">
<g><path style="opacity:0.961" fill="#f0bb19" d="M 79.5,10.5 C 86.1584,9.34448 88.1584,11.8445 85.5,18C 78.7496,19.4689 76.7496,16.9689 79.5,10.5 Z"/></g>
<g><path style="opacity:0.765" fill="#f0bb17" d="M 75.5,11.5 C 77.337,11.6395 77.6704,12.3061 76.5,13.5C 75.7025,13.0431 75.3691,12.3764 75.5,11.5 Z"/></g>
<g><path style="opacity:0.979" fill="#fadea1" d="M 78.5,73.5 C 77.8333,73.5 77.5,73.8333 77.5,74.5C 67.4123,85.0265 55.079,88.8598 40.5,86C 29.4791,83.0176 21.4791,76.5176 16.5,66.5C 19.9157,61.513 18.5824,58.8463 12.5,58.5C 10.8095,26.0234 26.1429,10.8568 58.5,13C 80.274,20.3598 89.4407,35.5265 86,58.5C 84.541,64.0848 82.041,69.0848 78.5,73.5 Z"/></g>
<g><path style="opacity:0.878" fill="#ed3d53" d="M 84.5,21.5 C 85.8333,21.5 87.1667,21.5 88.5,21.5C 88.5,22.8333 88.5,24.1667 88.5,25.5C 87.1667,25.5 85.8333,25.5 84.5,25.5C 84.5,24.1667 84.5,22.8333 84.5,21.5 Z"/></g>
<g><path style="opacity:1" fill="#5b433a" d="M 60.5,29.5 C 53.1667,25.5 45.8333,25.5 38.5,29.5C 41.2271,26.3952 44.7271,25.0618 49,25.5C 53.5325,25.1757 57.3658,26.5091 60.5,29.5 Z"/></g>
<g><path style="opacity:0.878" fill="#ed3d53" d="M 10.5,26.5 C 11.8333,26.5 13.1667,26.5 14.5,26.5C 14.5,27.8333 14.5,29.1667 14.5,30.5C 13.1667,30.5 11.8333,30.5 10.5,30.5C 10.5,29.1667 10.5,27.8333 10.5,26.5 Z"/></g>
<g><path style="opacity:1" fill="#139392" d="M 60.5,29.5 C 65.5377,33.6016 67.871,38.9349 67.5,45.5C 66.0666,47.5191 64.7332,49.6857 63.5,52C 67.4862,52.4988 71.4862,52.6655 75.5,52.5C 75.5,53.8333 75.5,55.1667 75.5,56.5C 69.1667,56.5 62.8333,56.5 56.5,56.5C 56.3505,55.448 56.5172,54.448 57,53.5C 64.9873,47.1254 65.4873,40.2921 58.5,33C 49.1842,28.1631 41.6842,29.9964 36,38.5C 34.3776,44.9252 36.3776,49.9252 42,53.5C 42.4828,54.448 42.6495,55.448 42.5,56.5C 36.1579,56.6662 29.8246,56.4995 23.5,56C 22.1667,55 22.1667,54 23.5,53C 27.5,52.6667 31.5,52.3333 35.5,52C 33.7518,49.9871 32.4185,47.8205 31.5,45.5C 31.129,38.9349 33.4623,33.6016 38.5,29.5C 45.8333,25.5 53.1667,25.5 60.5,29.5 Z"/></g>
<g><path style="opacity:1" fill="#5b453b" d="M 60.5,29.5 C 67.1159,33.0276 69.4492,38.3609 67.5,45.5C 67.871,38.9349 65.5377,33.6016 60.5,29.5 Z"/></g>
<g><path style="opacity:1" fill="#564139" d="M 38.5,29.5 C 33.4623,33.6016 31.129,38.9349 31.5,45.5C 29.5508,38.3609 31.8841,33.0276 38.5,29.5 Z"/></g>
<g><path style="opacity:1" fill="#554139" d="M 56.5,56.5 C 55.5222,56.189 54.8555,55.5223 54.5,54.5C 56.483,52.0163 58.6496,49.6829 61,47.5C 63.3261,37.789 59.3261,32.4557 49,31.5C 40.5848,32.5705 36.5848,37.2372 37,45.5C 39.3116,48.646 41.8116,51.646 44.5,54.5C 44.1445,55.5223 43.4778,56.189 42.5,56.5C 42.6495,55.448 42.4828,54.448 42,53.5C 36.3776,49.9252 34.3776,44.9252 36,38.5C 41.6842,29.9964 49.1842,28.1631 58.5,33C 65.4873,40.2921 64.9873,47.1254 57,53.5C 56.5172,54.448 56.3505,55.448 56.5,56.5 Z"/></g>
<g><path style="opacity:1" fill="#836751" d="M 52.5,34.5 C 56.7678,36.3153 57.1012,36.9819 53.5,36.5C 52.7025,36.0431 52.3691,35.3764 52.5,34.5 Z"/></g>
<g><path style="opacity:1" fill="#836751" d="M 45.5,34.5 C 46.8734,34.3433 48.2068,34.51 49.5,35C 46.6938,36.0887 44.0272,37.0887 41.5,38C 42.7305,36.5952 44.0639,35.4286 45.5,34.5 Z"/></g>
<g><path style="opacity:1" fill="#fefbf5" d="M 17.5,37.5 C 21.1612,37.3501 22.1612,38.8501 20.5,42C 16.7071,42.4866 15.7071,40.9866 17.5,37.5 Z"/></g>
<g><path style="opacity:1" fill="#49312e" d="M 67.5,45.5 C 67.528,47.5824 66.8613,49.4157 65.5,51C 69.0252,51.1787 72.3586,51.6787 75.5,52.5C 71.4862,52.6655 67.4862,52.4988 63.5,52C 64.7332,49.6857 66.0666,47.5191 67.5,45.5 Z"/></g>
<g><path style="opacity:1" fill="#f3c439" d="M 15.5,53.5 C 17.337,53.6395 17.6704,54.3061 16.5,55.5C 15.7025,55.0431 15.3691,54.3764 15.5,53.5 Z"/></g>
<g><path style="opacity:1" fill="#4c322e" d="M 31.5,45.5 C 32.4185,47.8205 33.7518,49.9871 35.5,52C 31.5,52.3333 27.5,52.6667 23.5,53C 22.1667,54 22.1667,55 23.5,56C 29.8246,56.4995 36.1579,56.6662 42.5,56.5C 36.013,57.654 29.3464,57.8206 22.5,57C 21.1667,55.3333 21.1667,53.6667 22.5,52C 25.8818,51.8236 29.2152,51.3236 32.5,50.5C 31.6906,48.9291 31.3573,47.2624 31.5,45.5 Z"/></g>
<g><path style="opacity:1" fill="#4d3733" d="M 75.5,52.5 C 77.7099,53.4551 78.0432,54.9551 76.5,57C 69.6536,57.8206 62.987,57.654 56.5,56.5C 62.8333,56.5 69.1667,56.5 75.5,56.5C 75.5,55.1667 75.5,53.8333 75.5,52.5 Z"/></g>
<g><path style="opacity:0.957" fill="#facd5a" d="M 12.5,58.5 C 18.5824,58.8463 19.9157,61.513 16.5,66.5C 10.9334,67.2468 9.10005,64.9134 11,59.5C 11.3826,58.944 11.8826,58.6107 12.5,58.5 Z"/></g>
<g><path style="opacity:1" fill="#4b322e" d="M 75.5,63.5 C 77.7099,64.4551 78.0432,65.9551 76.5,68C 58.5,68.6667 40.5,68.6667 22.5,68C 21.1667,66.3333 21.1667,64.6667 22.5,63C 40.3381,62.1714 58.0048,62.3381 75.5,63.5 Z"/></g>
<g><path style="opacity:1" fill="#13908f" d="M 75.5,63.5 C 75.5,64.8333 75.5,66.1667 75.5,67.5C 58.1635,67.6666 40.8301,67.4999 23.5,67C 22.1667,66 22.1667,65 23.5,64C 40.8301,63.5001 58.1635,63.3334 75.5,63.5 Z"/></g>
<g><path style="opacity:0.835" fill="#facf5a" d="M 77.5,74.5 C 77.5,73.8333 77.8333,73.5 78.5,73.5C 79.8333,73.5 81.1667,73.5 82.5,73.5C 82.5,74.8333 82.5,76.1667 82.5,77.5C 81.1667,77.5 79.8333,77.5 78.5,77.5C 78.7373,76.209 78.404,75.209 77.5,74.5 Z"/></g>
<g><path style="opacity:0.878" fill="#ed3d53" d="M 22.5,84.5 C 23.8333,84.5 25.1667,84.5 26.5,84.5C 26.5,85.8333 26.5,87.1667 26.5,88.5C 25.1667,88.5 23.8333,88.5 22.5,88.5C 22.5,87.1667 22.5,85.8333 22.5,84.5 Z"/></g>
</svg>
